<svg xmlns="http://www.w3.org/2000/svg" width="66.952" height="64.182" viewBox="0 0 66.952 64.182">
  <g id="Icon_feather-shopping-cart" data-name="Icon feather-shopping-cart" transform="translate(3 3)">
    <path id="Path_5" data-name="Path 5" d="M17.541,32.771A2.771,2.771,0,1,1,14.771,30,2.771,2.771,0,0,1,17.541,32.771Z" transform="translate(7.394 22.641)" fill="none" stroke="#4bb497" stroke-linecap="round" stroke-linejoin="round" stroke-width="6"/>
    <path id="Path_6" data-name="Path 6" d="M34.041,32.771A2.771,2.771,0,1,1,31.271,30,2.771,2.771,0,0,1,34.041,32.771Z" transform="translate(21.37 22.641)" fill="none" stroke="#4bb497" stroke-linecap="round" stroke-linejoin="round" stroke-width="6"/>
    <path id="Path_7" data-name="Path 7" d="M1.5,1.5H12.582l7.425,37.1a5.541,5.541,0,0,0,5.541,4.461h26.93A5.541,5.541,0,0,0,58.019,38.6l4.433-23.245h-47.1" transform="translate(-1.5 -1.5)" fill="none" stroke="#4bb497" stroke-linecap="round" stroke-linejoin="round" stroke-width="6"/>
  </g>
</svg>
